<?xml version="1.0" standalone="no"?>
<!DOCTYPE svg PUBLIC "-//W3C//DTD SVG 20010904//EN"
 "http://www.w3.org/TR/2001/REC-SVG-20010904/DTD/svg10.dtd">
<svg version="1.0" xmlns="http://www.w3.org/2000/svg"
 width="126.000000pt" height="184.000000pt" viewBox="0 0 126.000000 184.000000"
 preserveAspectRatio="xMidYMid meet">

<g transform="translate(0.000000,184.000000) scale(0.100000,-0.100000)"
fill="#000000" stroke="none">
<path d="M762 1808 c-7 -7 -12 -25 -12 -40 0 -36 -22 -37 -62 -3 -37 31 -72
32 -92 3 -20 -29 -20 -51 0 -91 16 -30 16 -32 -7 -47 -54 -35 -59 -46 -59
-127 0 -51 6 -88 15 -107 23 -43 13 -56 -40 -56 -25 0 -62 -7 -81 -15 -28 -12
-58 -14 -133 -9 -94 7 -97 6 -128 -20 -39 -33 -51 -82 -33 -136 11 -32 10 -41
-5 -64 -13 -19 -16 -39 -12 -74 3 -26 -1 -81 -9 -122 -8 -41 -16 -120 -17
-175 -2 -107 4 -127 51 -178 22 -23 24 -31 14 -45 -33 -46 -71 -133 -82 -186
-29 -141 28 -276 92 -219 25 21 98 172 124 256 10 31 23 57 30 57 6 0 29 -7
50 -17 27 -11 65 -16 126 -15 l86 0 -4 -31 c-9 -68 -34 -286 -34 -301 0 -8 8
-20 18 -25 49 -26 171 58 220 153 38 73 37 177 -1 260 -25 54 -26 61 -12 80
56 77 148 220 156 246 14 38 24 38 60 -2 16 -18 51 -57 77 -86 59 -65 98 -77
136 -39 20 20 26 36 26 69 0 66 -26 170 -56 229 -35 71 -135 169 -202 200 -28
13 -51 28 -49 33 1 4 24 16 50 26 86 33 92 47 51 110 -29 43 -26 56 14 65 15
3 36 12 46 20 18 14 18 19 7 84 -14 79 -68 198 -105 236 -18 18 -36 25 -64 25
-34 0 -40 4 -55 35 -22 45 -71 67 -95 43z m68 -28 c20 -20 26 -45 13 -53 -5
-2 -20 -7 -35 -11 -23 -5 -27 -2 -37 24 -5 17 -8 37 -5 45 9 21 40 19 64 -5z
m-161 -16 c23 -17 51 -70 51 -98 0 -23 -28 -45 -50 -39 -35 9 -70 60 -70 103
0 50 27 63 69 34z m86 -54 c-3 -5 -11 -10 -16 -10 -6 0 -7 5 -4 10 3 6 11 10
16 10 6 0 7 -4 4 -10z m105 -22 c15 -10 26 -10 52 0 27 10 35 9 50 -5 18 -16
26 -39 10 -29 -5 3 -17 -7 -28 -21 -10 -15 -24 -31 -30 -37 -23 -24 -47 -110
-48 -172 -1 -73 -5 -75 -89 -50 -56 17 -59 8 -17 -41 17 -18 30 -31 30 -29 0
3 16 -6 36 -19 19 -13 45 -27 57 -30 45 -13 77 -28 77 -36 0 -5 -29 -9 -64 -9
l-63 0 -74 70 c-71 66 -85 76 -154 96 -41 13 -43 50 -6 139 23 56 33 71 52 73
16 2 20 0 11 -6 -8 -6 -10 -25 -6 -63 3 -30 5 -67 5 -82 l-1 -28 38 20 c30 15
52 19 92 15 48 -5 52 -4 40 11 -7 9 -23 38 -36 65 -13 28 -34 61 -48 75 -22
22 -24 28 -13 53 10 23 17 27 43 25 19 -1 37 4 44 12 15 18 15 18 40 3z m168
-110 c24 -61 42 -125 42 -151 0 -21 -62 -51 -127 -62 -40 -6 -43 -5 -49 20
-21 86 44 243 102 245 7 0 21 -24 32 -52z m-448 2 c0 -5 -5 -10 -11 -10 -5 0
-7 5 -4 10 3 6 8 10 11 10 2 0 4 -4 4 -10z m162 -7 c19 -22 48 -78 48 -93 0
-19 -32 -10 -56 16 -13 14 -24 34 -24 45 0 10 -7 19 -15 19 -16 0 -20 12 -8
23 12 13 40 7 55 -10z m186 -269 c30 -34 28 -48 -5 -39 -30 7 -109 50 -117 64
-3 4 18 6 47 4 39 -4 58 -11 75 -29z m-533 -14 c55 -6 152 -15 215 -21 63 -6
119 -15 124 -20 6 -6 4 -9 -6 -9 -24 0 -57 -47 -64 -92 -8 -47 -36 -49 -45 -3
l-6 30 -7 -27 c-8 -27 -9 -27 -79 -23 -255 14 -362 30 -379 58 -15 24 -8 65
17 91 28 30 60 32 230 16z m458 -156 c-8 -21 -23 -17 -23 6 0 13 5 18 14 14 8
-3 12 -12 9 -20z m77 -19 c7 -9 15 -13 18 -11 8 8 63 -33 116 -87 59 -61 104
-154 118 -245 14 -86 6 -122 -23 -117 -12 3 -23 6 -24 7 -14 21 -79 136 -100
178 -34 69 -31 66 -60 50 -32 -17 -38 -11 -51 58 -6 31 -17 79 -25 106 -11 39
-11 50 -1 54 6 2 10 8 6 13 -9 15 13 10 26 -6z m-520 -41 c118 -13 247 -23
285 -22 75 2 95 -4 95 -30 0 -12 -3 -13 -12 -4 -15 15 -69 15 -105 0 -15 -7
-84 -46 -153 -87 -69 -41 -144 -83 -168 -93 -39 -18 -45 -18 -67 -4 -38 25
-139 144 -152 179 -19 52 4 104 41 91 12 -3 118 -17 236 -30z m272 -99 c6 -7
-28 -128 -65 -230 -14 -38 -31 -100 -38 -137 -12 -64 -27 -90 -30 -50 -3 34 3
97 12 122 l9 25 -20 -24 c-12 -13 -28 -50 -37 -83 -12 -44 -21 -58 -35 -58
-21 0 -24 32 -7 77 5 15 7 24 3 21 -3 -4 -15 3 -24 15 -13 15 -15 24 -7 29 16
10 1 22 -18 15 -19 -8 -20 -43 0 -51 24 -9 18 -28 -6 -21 -15 5 -20 3 -17 -6
3 -8 14 -15 25 -17 16 -2 19 -9 15 -28 -6 -35 -21 -38 -110 -24 -89 14 -169
42 -206 71 -23 18 -26 27 -26 87 0 63 14 174 27 216 5 17 8 15 31 -15 39 -51
119 -127 142 -134 23 -7 81 23 255 134 114 72 118 74 127 66z m204 -244 c-22
-43 -84 -101 -107 -101 -16 0 18 70 38 79 13 6 38 31 56 57 40 57 48 36 13
-35z m-686 -287 c29 -45 25 -132 -7 -167 -12 -12 -27 -41 -34 -65 -10 -33 -15
-40 -21 -28 -13 22 -27 20 -38 -6 -7 -16 -9 5 -7 72 2 82 7 104 34 163 18 37
36 67 42 67 5 0 19 -16 31 -36z m566 -41 c22 -52 14 -174 -15 -230 -36 -71
-149 -156 -152 -115 -2 34 3 64 17 97 8 19 14 59 14 89 0 30 4 58 10 61 5 3
14 23 20 44 7 26 21 45 47 63 21 14 39 26 40 27 2 1 10 -16 19 -36z m-641
-263 c-3 -5 -10 -10 -16 -10 -5 0 -9 5 -9 10 0 6 7 10 16 10 8 0 12 -4 9 -10z"/>
<path d="M763 1649 c-14 -14 -1 -46 26 -66 36 -26 42 13 9 52 -18 20 -26 23
-35 14z"/>
<path d="M960 1430 c0 -5 7 -10 15 -10 8 0 15 5 15 10 0 6 -7 10 -15 10 -8 0
-15 -4 -15 -10z"/>
<path d="M967 970 c-3 -13 1 -24 13 -30 23 -12 34 1 25 30 -8 26 -31 26 -38 0z"/>
<path d="M1062 838 c2 -12 11 -24 21 -26 14 -3 18 1 15 20 -2 12 -11 24 -21
26 -14 3 -18 -1 -15 -20z"/>
<path d="M1110 756 c0 -26 24 -51 40 -41 15 9 12 31 -6 49 -22 23 -34 20 -34
-8z"/>
<path d="M283 924 c-11 -30 10 -69 37 -69 20 0 26 6 28 28 2 16 -2 35 -9 43
-16 19 -48 18 -56 -2z m47 -44 c0 -5 -4 -10 -10 -10 -5 0 -10 5 -10 10 0 6 5
10 10 10 6 0 10 -4 10 -10z"/>
<path d="M227 693 c-13 -12 -7 -25 8 -19 8 3 15 2 15 -3 0 -5 -7 -14 -15 -21
-25 -21 -19 -50 10 -50 14 0 25 5 25 10 0 6 -7 10 -17 10 -15 0 -15 1 0 18 23
25 22 62 -1 62 -10 0 -22 -3 -25 -7z"/>
<path d="M284 686 c-3 -8 -4 -29 -2 -48 3 -32 4 -33 56 -35 29 -2 52 2 52 7 0
6 -7 10 -16 10 -13 0 -12 4 5 26 11 14 17 32 14 40 -6 17 -35 18 -51 2 -9 -9
-12 -9 -12 0 0 17 -39 15 -46 -2z m36 -36 c0 -16 -4 -30 -10 -30 -5 0 -10 14
-10 30 0 17 5 30 10 30 6 0 10 -13 10 -30z m37 3 c-15 -16 -17 -16 -17 -1 0 9
6 18 13 21 20 7 22 -2 4 -20z"/>
<path d="M172 335 c4 -33 22 -33 26 0 2 18 -1 25 -13 25 -12 0 -15 -7 -13 -25z"/>
<path d="M654 295 c-9 -22 0 -50 16 -50 21 0 26 51 5 59 -9 3 -18 0 -21 -9z"/>
<path d="M620 105 c-14 -16 -5 -35 16 -35 15 0 20 35 5 44 -5 3 -14 -1 -21 -9z"/>
</g>
</svg>
